<svg width="1000" height="628" viewBox="0 0 1000 628" fill="none" xmlns="http://www.w3.org/2000/svg">
<path d="M224.107 164.271C224.107 163.797 222.684 163.797 215.416 163.797L188.237 164.113C188.237 125.558 198.192 108.334 215.416 108.334C230.427 108.334 243.068 113.074 251.285 113.074C259.186 113.074 264.716 104.542 264.716 100.433C264.716 96.957 252.075 93.9547 239.276 93.9547C212.097 93.9547 178.756 125.874 171.014 164.271H164.535L155.844 176.28C155.844 177.544 157.108 177.702 159.321 177.702C163.113 177.702 166.273 177.702 169.591 177.702C169.591 178.176 169.591 178.651 169.591 179.283C169.591 179.283 169.591 179.283 169.591 179.441C169.591 184.181 169.908 261.134 169.908 261.134C169.908 283.256 169.591 286.258 155.528 286.258C153.474 286.258 153.474 288.471 155.528 288.471C162.797 288.471 175.912 287.997 179.704 287.997C183.497 287.997 197.402 288.471 204.671 288.471C206.725 288.471 206.725 286.258 204.671 286.258C189.975 286.258 189.027 285.468 188.711 261.134C188.711 261.134 188.395 203.617 188.395 177.702C198.034 177.702 205.145 177.702 212.571 178.018C217.628 172.014 224.107 165.693 224.107 164.271Z" fill="black"></path>
<path d="M219.366 230.953C219.366 265.401 243.858 290.683 279.096 290.683C305.642 290.683 331.083 270.773 345.304 245.649C351.308 272.353 373.746 290.683 406.139 290.683C420.361 290.683 432.844 286.258 443.747 278.99C460.338 267.929 472.822 250.547 481.196 232.692V258.448C481.196 282.94 480.722 285.784 469.977 285.784C467.923 285.784 467.923 287.997 469.977 287.997C477.246 287.997 490.203 287.523 493.838 287.523C497.63 287.523 507.269 287.997 514.537 287.997C516.592 287.997 516.592 285.784 514.537 285.784C500.79 285.784 499.842 284.362 499.842 258.448V87.4761C499.842 86.212 496.05 85.2639 495.418 85.738C486.885 90.4784 477.72 94.7448 465.237 96.957C463.183 97.273 463.183 99.4852 465.237 99.1692C477.72 96.957 481.196 97.115 481.196 118.605V228.425C467.449 257.816 449.119 276.304 418.939 276.304C385.282 276.304 358.577 252.443 358.577 221.789C358.577 214.836 359.367 208.357 360.789 202.669H445.801C453.544 202.669 455.756 199.192 456.23 194.926C457.652 183.391 448.803 161.269 412.934 161.269C378.487 161.269 343.724 193.662 343.724 230.953C343.724 234.904 344.04 238.854 344.672 242.646C332.189 265.243 316.071 276.778 293.791 276.304C260.924 276.304 234.22 252.443 234.22 221.789C234.22 214.836 235.01 208.357 236.432 202.669H321.444C329.186 202.669 331.399 199.192 331.873 194.926C333.295 183.391 324.446 161.269 288.577 161.269C254.287 161.269 219.366 193.662 219.366 230.953ZM405.981 166.799C425.101 166.799 434.582 180.073 434.582 189.396C434.582 192.714 433.792 195.558 432.37 197.296C431.58 198.086 425.891 199.508 422.415 199.508C406.297 199.508 389.548 200.457 361.421 200.457C367.584 178.018 384.491 166.799 405.981 166.799ZM281.624 166.799C300.744 166.799 310.225 180.073 310.225 189.396C310.225 192.714 309.435 195.558 308.012 197.296C307.222 198.086 301.534 199.508 298.057 199.508C281.94 199.508 265.19 200.457 237.064 200.457C243.226 178.018 260.292 166.799 281.624 166.799Z" fill="black"></path>
<path d="M525.598 177.387C538.081 174.7 541.558 175.332 541.558 194.294V260.976C541.558 282.466 540.61 286.101 526.388 286.101C524.334 286.101 524.334 288.313 526.388 288.313C533.657 288.313 547.878 287.839 551.513 287.839C555.147 287.839 568.262 288.313 575.373 288.313C577.427 288.313 577.427 286.101 575.373 286.101C561.468 286.101 560.361 282.308 560.361 260.976V163.007C560.361 161.743 556.569 160.795 555.937 161.269C546.298 168.064 537.291 172.804 524.808 175.49C522.754 175.964 523.544 178.019 525.598 177.387Z" fill="black"></path>
<path d="M549.933 139.779C557.201 139.779 563.206 134.09 563.206 126.822C563.206 119.553 557.201 113.549 549.933 113.549C542.664 113.549 536.975 119.553 536.975 126.822C536.975 134.09 542.822 139.779 549.933 139.779Z" fill="black"></path>
<path d="M586.118 288.313C593.387 288.313 606.344 287.839 609.978 287.839C613.929 287.839 626.886 288.313 628.94 288.313C630.994 288.313 630.994 286.101 628.94 286.101H615.983V191.45C627.676 175.491 637.947 168.854 653.59 168.854C668.76 168.854 683.455 178.493 683.771 209.464V262.557C683.771 284.521 681.243 286.259 671.13 286.259C669.076 286.259 669.076 288.471 671.13 288.471C678.399 288.471 688.511 287.997 692.304 287.997C696.254 287.997 712.53 288.471 714.426 288.471C716.48 288.471 716.48 286.259 714.426 286.259C705.735 286.575 702.417 285.943 702.417 264.137V211.992C702.417 172.804 684.245 161.427 661.807 161.427C642.687 161.427 628.466 171.698 615.667 188.606C615.667 178.967 610.136 168.38 605.396 163.955C604.606 163.165 604.448 163.165 603.974 163.639C599.707 167.906 590.226 172.33 585.802 174.068C585.328 174.384 585.012 174.858 585.802 175.491C591.491 180.705 597.337 187.184 597.337 194.452V258.764C597.337 283.256 596.863 286.101 586.118 286.101C584.064 286.101 584.064 288.313 586.118 288.313Z" fill="black"></path>
<path d="M806.864 273.301H773.523C751.875 273.301 740.34 272.037 740.34 262.556C740.34 254.024 755.036 249.915 769.731 248.809C771.153 249.125 772.733 249.125 774.155 249.125C804.336 249.125 826.774 232.692 826.774 206.303C826.774 183.865 812.079 167.116 786.48 163.639V163.165C804.178 163.165 827.564 167.59 834.991 167.59C841.786 167.59 846.21 160.163 846.21 155.896C846.21 152.894 841.47 152.104 838.941 152.104C832.937 152.104 803.862 161.585 779.37 161.585C750.295 161.585 727.225 181.337 727.225 206.619C727.225 230.005 741.13 244.227 762.304 248.019C742.078 251.021 726.909 261.292 726.909 272.195C726.909 284.204 740.34 288.313 760.25 289.103C744.765 294.475 728.489 305.694 721.694 319.284C718.85 319.284 716.006 319.284 713.32 319.284C686.931 319.284 662.913 326.71 642.845 337.455C614.877 352.467 594.335 373.799 583.748 391.338C576.479 402.241 552.145 443.167 533.657 476.824C527.969 487.411 521.174 497.682 518.014 509.375C516.276 515.696 515.485 523.122 517.066 529.443C518.33 534.183 521.016 538.134 524.808 540.188C527.811 541.926 531.445 542.4 535.553 541.136C543.296 538.608 549.301 532.603 555.463 527.705C557.043 526.441 575.847 510.323 575.531 509.691L574.109 507.953C567.156 515.064 559.097 521.542 550.249 526.283C545.508 528.811 540.61 529.917 537.45 524.386C534.131 518.698 536.185 511.903 538.398 506.057C541.716 496.892 546.614 488.359 551.197 479.826C566.84 451.226 583.274 421.835 600.813 393.076C619.301 361.157 631.784 346.778 643.951 339.509C652.484 334.453 661.175 333.821 671.13 333.821C688.511 333.821 705.103 336.033 719.008 337.297C721.536 352.625 735.916 364.318 759.618 364.16C798.806 364.476 845.894 332.241 845.894 300.322C845.894 286.258 835.307 273.301 806.864 273.301ZM746.029 204.091C746.029 177.702 756.458 164.271 777.948 164.271C797.699 164.271 808.286 185.129 808.286 206.303C808.286 232.534 797.067 246.597 776.842 246.597C756.3 246.755 746.029 228.267 746.029 204.091ZM775.735 350.412C756.458 350.412 742.394 345.988 735.284 337.929C733.546 335.875 732.123 333.663 731.175 331.135C731.175 330.977 731.017 330.819 731.017 330.661C730.701 329.713 730.385 328.606 730.227 327.5C730.227 327.184 730.069 326.868 730.069 326.552C729.911 325.288 729.753 324.024 729.753 322.602C729.753 321.496 729.911 320.548 730.069 319.6C732.123 306.8 746.029 295.265 765.939 289.261C766.413 289.261 766.887 289.261 767.361 289.261H798.332C826.458 289.261 838.941 294.949 838.941 310.909C838.783 333.347 807.022 350.412 775.735 350.412Z" fill="black"></path>
<path d="M358.893 433.686C359.999 427.84 360.315 420.571 355.101 416.463C347.042 410.142 334.559 419.781 327.132 424.679C301.218 441.745 277.673 464.025 258.08 488.043C278.938 450.436 297.425 415.83 311.172 393.076C329.818 360.999 342.617 345.672 354.784 339.193C363.791 334.453 371.692 333.663 381.647 333.663C405.823 333.663 428.419 337.929 444.379 337.929C448.803 337.929 455.914 328.764 455.914 323.708C455.914 321.97 454.966 320.706 452.912 320.548C446.907 319.6 434.424 319.284 423.995 319.284C398.08 319.284 374.22 326.71 353.994 337.455C325.078 352.625 303.588 375.063 293.001 392.444C287.786 400.977 282.888 409.668 277.831 418.359C270.089 432.106 262.346 445.853 254.761 459.601C247.019 473.506 239.276 487.569 231.375 501.316C228.215 506.847 225.213 512.377 222.052 517.75C220.788 519.804 219.682 522.016 218.418 524.07C217.47 525.651 216.364 527.231 215.416 529.127C214.152 531.655 213.519 534.183 214.626 536.712C215.89 539.398 219.208 539.714 221.894 539.714C224.58 539.714 227.425 539.872 229.321 539.872C234.535 531.181 242.436 515.064 250.811 502.422C259.028 490.413 268.193 479.194 278.147 468.607C288.26 457.862 299.005 447.907 310.698 439.059C315.123 435.74 319.705 432.422 324.446 429.736C326.658 428.472 333.927 423.731 336.613 424.995C340.721 427.05 339.457 437.32 338.035 441.745C334.401 453.438 328.08 464.341 321.917 474.77C314.649 487.253 305.01 499.578 300.586 513.483C297.741 522.806 300.902 538.766 311.963 541.136C322.075 543.348 330.766 534.657 338.351 528.495C345.62 522.49 352.73 515.854 359.525 509.375L358.103 507.637C356.049 509.533 344.83 518.698 344.83 518.698C340.089 522.016 328.554 532.287 323.024 526.441C321.127 524.386 320.021 521.542 319.863 518.856C319.389 509.691 329.502 494.364 338.509 478.562C346.568 464.973 355.733 449.804 358.893 433.686Z" fill="black"></path>
<path d="M486.569 521.226C481.828 524.703 475.824 530.391 469.503 527.389C460.496 522.964 465.079 509.217 467.607 502.422C471.399 492.151 476.772 482.355 482.144 472.716C493.363 452.964 505.688 433.528 519.91 415.83C519.91 415.83 520.226 412.828 517.698 415.356C512.167 421.361 503.792 429.262 500.316 432.264C485.621 416.146 478.668 414.092 466.501 414.092C459.548 414.092 450.383 416.621 440.27 421.361C418.78 431.316 394.13 451.542 383.227 478.404C378.329 490.571 375.326 503.845 375.8 516.96C375.958 523.754 377.697 537.186 384.649 541.136C386.861 542.4 389.548 542.558 392.076 541.926C397.448 540.662 401.399 536.712 405.191 533.077C409.616 528.653 413.882 524.386 418.464 520.12C435.372 504.635 453.544 486.779 467.765 471.294C463.815 475.718 460.654 481.881 457.336 486.937C453.702 492.31 450.225 497.84 447.697 503.845C443.747 512.851 442.799 523.438 446.275 532.761C447.697 536.396 450.225 539.714 453.702 541.294C457.02 542.716 460.812 542.4 464.131 541.136C467.449 539.872 470.451 537.818 473.453 535.763C484.514 527.705 494.943 518.698 504.582 508.901C504.266 508.427 503.792 507.953 503.476 507.637C497.946 512.219 492.415 516.96 486.569 521.226ZM437.9 497.998C432.686 503.054 427.471 507.953 422.099 512.693C420.045 514.432 417.99 516.486 416.094 518.382C412.776 521.542 409.3 524.544 405.665 527.073C404.717 527.705 403.295 528.337 402.189 528.337C400.135 528.337 399.029 526.915 398.239 525.177C395.552 518.856 395.236 511.745 395.552 505.109C396.184 494.838 398.397 484.725 401.557 475.086C409.3 450.594 425.733 430.052 441.218 422.783C445.011 421.045 448.487 420.097 451.963 420.097C461.918 420.097 470.609 425.153 486.885 445.537C487.359 446.169 473.137 461.497 471.715 462.919C460.812 474.928 449.593 486.779 437.9 497.998Z" fill="black"></path>
<path d="M681.875 413.46C671.92 413.46 660.701 417.253 650.904 422.467C634.154 431.948 614.561 450.12 604.764 466.869C601.445 472.716 598.285 478.72 595.757 484.883C591.807 494.68 589.278 505.267 590.7 515.854C591.016 518.382 591.649 520.91 592.597 523.28C596.231 533.235 604.606 541.768 615.509 542.874C627.676 544.138 639.369 537.976 649.64 532.287C662.913 525.019 678.083 513.642 688.195 501.316L685.983 500.052C678.082 510.007 661.807 522.174 655.328 525.177C648.376 528.495 639.211 530.865 631.942 530.865C625.464 530.865 619.459 528.653 615.509 523.438C613.455 520.594 611.874 517.118 611.242 513.8C610.926 512.219 609.978 503.213 611.4 502.265C627.518 493.1 641.265 484.567 652.958 477.298C689.302 454.07 704.313 439.217 704.313 427.208C704.313 418.991 696.57 413.46 681.875 413.46ZM684.403 446.169C681.401 454.07 671.92 462.287 651.536 475.56C641.107 482.355 628.15 490.255 611.716 500.052C613.455 486.147 618.985 471.926 625.938 459.443C635.419 442.061 647.586 427.84 655.802 422.309C658.015 421.519 660.069 421.361 662.281 421.361C674.29 421.361 685.509 430.368 685.509 440.797C685.351 442.377 685.193 444.431 684.403 446.169Z" fill="black"></path>
</svg>