<svg xmlns="http://www.w3.org/2000/svg" viewBox="0 0 150 40" role="img" aria-label="TikTok">
  <g>
    <path d="M22 8 h5 c0.8 3.5 3.5 6 7 6.5 v5 c-2.5 0 -5 -0.6 -7 -2 v10 c0 5.5 -4.5 10 -10 10 s-10 -4.5 -10 -10 s4.5 -10 10 -10 c0.5 0 1 0 1.5 0.1 v5.2 c-0.5 -0.1 -1 -0.2 -1.5 -0.2 c-2.8 0 -5 2.2 -5 5 s2.2 5 5 5 s5 -2.2 5 -5 z" fill="#111"/>
    <text x="44" y="27" font-family="Helvetica, Arial, sans-serif" font-size="20" font-weight="800" letter-spacing="-0.5" fill="#111">TikTok</text>
  </g>
</svg>
