<?xml version="1.0" encoding="UTF-8"?><svg id="Ebene_1" xmlns="http://www.w3.org/2000/svg" viewBox="0 0 612.9 89.39"><defs></defs><path class="cls-1" d="M224.72,28.58c-.39,0-.74,0-1.1,0-9.56,0-19.12,0-28.69,0-.92,0-1.86,.05-2.75,.23-2.01,.42-3.09,1.84-3.19,4.19-.07,1.71-.04,3.43-.04,5.14,0,5.01,0,10.02,0,15.04,0,4.32,1.34,5.68,5.68,5.69,6,.02,12,0,18,0,.39,0,.77,0,1.2,0v10.36c-.3,.02-.58,.06-.87,.06-7.45,0-14.9,.04-22.36-.02-1.7-.01-3.43-.18-5.09-.55-4.43-1-6.95-3.78-7.62-8.26-.22-1.49-.36-3.02-.36-4.53-.03-8.11-.04-16.22,0-24.33,0-1.64,.12-3.31,.43-4.91,.96-4.88,3.88-7.55,8.85-8.21,1.43-.19,2.89-.26,4.34-.27,14.64-.02,29.28-.01,43.92-.01,.35,0,.71,0,1.16,0v1.17c0,18.79,.03,37.59-.04,56.38,0,2.28-.29,4.62-.9,6.81-1.11,4.02-4.22,5.88-8.15,6.48-1.46,.22-2.95,.31-4.43,.31-7.48,.03-14.97,.01-22.45,.01-.32,0-.64-.03-1.02-.05v-10.3h25.47V28.58Z"></path><path class="cls-1" d="M312.9,69.31V0h11.37V58.89h1.18c9.56,0,19.12,0,28.68,0,.59,0,1.19-.02,1.78-.06,2.56-.14,4.08-1.63,4.18-4.21,.07-1.98,.05-3.96,.05-5.93,0-5.14,.02-10.29-.04-15.43-.03-2.96-1.36-4.36-4.31-4.58-1.77-.13-3.56-.09-5.34-.09-4.68-.01-9.36,0-14.05,0h-1.13v-10.29c.25-.03,.47-.08,.69-.08,7.95,0,15.89-.01,23.84,.05,2.87,.02,5.65,.57,7.99,2.42,2.39,1.9,3.24,4.57,3.57,7.46,.16,1.37,.2,2.76,.2,4.14,.02,7.85,.07,15.69-.03,23.54-.03,2.18-.27,4.43-.84,6.53-1.05,3.87-3.93,5.87-7.76,6.54-1.42,.25-2.88,.39-4.32,.39-14.97,.03-29.94,.02-44.91,.02-.23,0-.46,0-.8,0Z"></path><path class="cls-1" d="M612.9,69.31h-1.06c-14.71,0-29.41,.03-44.12-.04-2.15,0-4.36-.26-6.44-.81-4.02-1.06-6.01-4.06-6.66-8-.25-1.52-.36-3.08-.37-4.62-.04-8.04-.07-16.09,.02-24.13,.02-2.15,.25-4.37,.81-6.44,1.14-4.23,4.32-6.19,8.46-6.78,1.3-.18,2.63-.26,3.94-.26,7.42-.02,14.84-.01,22.26-.01,.23,0,.46,.02,.77,.04v10.34c-.4,0-.79,0-1.17,0-5.87,0-11.74,0-17.61,0-.63,0-1.25,.03-1.88,.09-2.71,.28-4.02,1.62-4.15,4.35-.07,1.58-.04,3.16-.04,4.75,0,4.95,0,9.89,0,14.84,0,.3,0,.59,0,.89,.04,3.91,1.38,5.34,5.3,5.36,9.96,.05,19.91,.02,29.87,.02,.19,0,.38-.03,.66-.06V0h11.38V69.31Z"></path><path class="cls-1" d="M125.95,69.31h-1.12c-14.71,0-29.41,.03-44.12-.04-2.18-.01-4.43-.28-6.53-.85-3.61-.98-5.71-3.61-6.36-7.23-.89-5-.97-10.06,.01-15.04,.94-4.78,3.93-7.26,8.9-7.89,1.27-.16,2.56-.23,3.84-.24,7.32-.02,14.64-.01,21.96,0,.29,0,.58,.03,.91,.04v10.33c-.42,0-.8,0-1.18,0-6.13,0-12.27,0-18.4,0-.66,0-1.32,.04-1.97,.12-1.84,.22-2.86,1.09-3.07,2.93-.16,1.46-.17,2.97,0,4.43,.22,1.89,1.35,2.8,3.27,2.96,.49,.04,.99,.06,1.48,.06,9.99,0,19.98,0,29.97,0h.94V28.59h-41.67v-10.31c.21-.03,.39-.07,.58-.07,13.59,0,27.17,0,40.76,.04,2.46,0,4.86,.46,7.02,1.73,2.72,1.6,3.96,4.16,4.42,7.14,.24,1.52,.36,3.08,.36,4.62,.03,12.17,.02,24.34,.01,36.5,0,.32-.03,.64-.05,1.06Z"></path><path class="cls-1" d="M503.96,69.31h-1.11c-14.71,0-29.41,.02-44.12-.03-1.93,0-3.89-.2-5.78-.62-3.75-.83-6.21-3.23-7.01-6.98-1.09-5.11-1.07-10.31-.13-15.42,.89-4.86,3.97-7.39,9.02-8.01,1.18-.14,2.37-.22,3.55-.23,7.42-.02,14.84-.01,22.26-.01,.26,0,.51,.02,.82,.04v10.33c-.4,0-.78,0-1.16,0-6.13,0-12.27,0-18.4,0-.66,0-1.32,.04-1.97,.11-1.81,.21-2.83,1.03-3.05,2.82-.18,1.52-.19,3.1,0,4.63,.21,1.81,1.31,2.68,3.13,2.86,.52,.05,1.05,.06,1.58,.06,9.99,0,19.98,0,29.97,0h.95V28.6h-41.66v-10.31c.23-.03,.44-.08,.66-.08,13.52,0,27.04,0,40.56,.04,2.53,0,4.99,.45,7.21,1.78,2.64,1.58,3.85,4.08,4.34,6.98,.25,1.49,.37,3.01,.38,4.52,.03,12.27,.02,24.53,.02,36.8,0,.29-.03,.58-.04,.98Z"></path><path class="cls-1" d="M147.05,69.26h-11.53c0-.41,0-.76,0-1.11,0-12.1-.02-24.2,.02-36.31,0-1.74,.11-3.51,.45-5.21,.99-4.87,3.86-7.47,8.8-8.14,1.37-.19,2.76-.26,4.14-.27,7.42-.03,14.84-.01,22.26-.01,.32,0,.64,.03,1,.05v10.32h-25.14v40.68Z"></path><path class="cls-1" d="M522.91,69.26h-11.53v-1.11c0-12.1-.02-24.2,.02-36.31,0-1.74,.11-3.51,.46-5.21,.99-4.87,3.86-7.47,8.8-8.14,1.37-.19,2.76-.26,4.14-.27,7.42-.03,14.84-.01,22.26-.01,.32,0,.64,.03,1,.05v10.32h-25.14v40.68Z"></path><path class="cls-1" d="M268.43,69.22c-.13,.04-.22,.08-.31,.08-4.48-.06-8.97,.05-13.44-.22-4.18-.26-7.54-2.07-9.06-6.32-.81-2.27-.96-4.64-.97-7.01-.01-6.66-.02-13.32,0-19.98,0-2.41,0-4.82,.18-7.21,.22-2.95,1.07-5.7,3.44-7.73,1.55-1.33,3.41-2.15,5.39-2.26,4.89-.28,9.8-.34,14.78-.49v10.48h-12.29v30.34h12.28v10.34Z"></path><path class="cls-1" d="M403.76,69.47c-4.96-.16-9.87,0-14.69-.57-5.67-.67-8.61-4.22-8.91-9.97-.18-3.42-.16-6.85-.17-10.28-.03-5.61-.04-11.21,.01-16.82,.02-1.74,.11-3.51,.46-5.21,1-4.9,3.9-7.54,8.91-8.13,2.12-.25,4.27-.24,6.41-.27,2.63-.04,5.27-.01,8.06-.01,0,1.77,0,3.47,0,5.17s0,3.36,0,5.15h-12.35v30.34h12.27v10.61Z"></path><path class="cls-1" d="M291.87,28.59h-12.26v-10.29c.2-.03,.42-.09,.64-.09,3.86,0,7.72-.1,11.57,.08,1.88,.09,3.82,.47,5.57,1.14,3.96,1.52,5.36,4.91,5.78,8.82,.16,1.47,.19,2.96,.19,4.44,.02,7.68,.04,15.36-.02,23.04-.01,1.86-.19,3.76-.56,5.58-.88,4.38-3.75,6.82-8.07,7.57-1.52,.26-3.08,.36-4.62,.39-3.16,.06-6.33,.02-9.49,.02-.32,0-.64,0-1.06,0,0-2.31,0-4.51,0-6.71,0-.92,.04-1.85-.01-2.77-.04-.74,.21-.96,.95-.95,3.43,.04,6.86,.02,10.29,.02,.35,0,.71,0,1.11,0V28.59Z"></path><path class="cls-1" d="M414.93,69.31v-10.39h12.26V28.59h-12.27v-10.23c.1-.06,.16-.12,.21-.12,4.68,.06,9.37-.12,14.02,.27,5.68,.47,8.87,4.01,9.34,9.7,.13,1.61,.18,3.22,.19,4.84,.02,7.55,.05,15.1-.02,22.65-.02,1.9-.19,3.82-.57,5.68-.89,4.34-3.73,6.79-8.01,7.51-1.94,.32-3.93,.37-5.9,.41-3.06,.06-6.12,.02-9.26,.02Z"></path><path class="cls-1" d="M48.7,58.83c-11.38,0-24.52-.05-35.8-.05,0-10.1-.13-20.06-.13-30.21,2.97,0,16.73,.03,24.55,.04h0c3.83,0,7.6,0,11.48,0v7.85h11.24c.49-2.4,.03-9.08-.73-11.4-1-3.04-3.07-4.83-6.04-6.01-.95-.38-2.05-.63-3.08-.64-1.74-.03-3.48-.03-5.23-.03,0,0,0,0,0,0-1.15,0-21.07-.18-22.15-.16-3.39,.07-6.8-.04-10.17,.3-5.01,.5-11.08,3.23-12.15,8.12-.22,1.02-.33,2.07-.49,3.11v28.1c.13,.87,.26,1.75,.4,2.62,.68,4.49,6.39,7.3,10.82,8.27,1.79,.39,3.65,.55,5.49,.56,9.99,.05,19.98,.03,29.97,.02,1.22,0,2.44-.07,3.65-.2,5.53-.56,8.76-3.52,9.47-9.03,.37-2.86,.26-5.78,.37-8.68,.01-.42,0-.83,0-1.26h-11.48v8.69Z"></path></svg>